<svg width="384" height="255" viewBox="0 0 384 255" fill="none" xmlns="http://www.w3.org/2000/svg">
<g clip-path="url(#clip0_151_597)">
<path d="M381.372 72.9019C363.425 -14.9162 193.265 -20.4826 83.5897 46.4222V53.8182C193.148 -2.63487 348.556 -2.26993 362.706 78.6046C367.45 105.367 352.407 133.248 325.529 149.305V170.291C357.85 158.414 391.006 119.979 381.372 72.9019ZM182.009 226.613C106.354 233.605 27.4799 222.584 16.4231 163.338C11.0136 134.123 24.3139 103.143 41.931 83.8889V73.6026C10.1978 101.484 -7.00659 136.785 2.91398 178.466C15.5684 231.95 83.2449 262.23 186.564 252.178C227.46 248.202 280.952 235.011 318.168 214.541V185.463C284.385 205.626 228.538 222.297 182.009 226.613Z" fill="#0071C5"/>
<path d="M312.04 60.1292H292.203V148.662C292.203 159.041 297.205 168.067 312.04 169.512V60.1292ZM75.791 92.4576H55.911L55.8916 150.297C55.8916 160.71 60.9223 169.722 75.791 171.147V92.4576ZM55.911 81.6652H75.7328V62.8102H55.911V81.6652ZM194.61 170.237C178.561 170.237 171.772 159.041 171.772 148.015V71.2086H191.424V92.4381H206.235V108.369H191.424V146.799C191.424 151.305 193.546 153.796 198.232 153.796H206.235V170.237H194.61ZM246.786 107.435C240.056 107.435 234.899 110.914 232.699 115.59C231.427 118.402 230.951 120.606 230.82 124.066H261.111C260.732 115.59 256.901 107.435 246.786 107.435ZM230.82 137.505C230.82 147.577 237.099 155.012 248.233 155.012C256.959 155.012 261.262 152.579 266.307 147.577L278.466 159.192C270.672 166.909 262.495 171.585 248.097 171.585C229.266 171.585 211.241 161.304 211.241 131.292C211.241 105.629 227.008 91.1292 247.66 91.1292C268.662 91.1292 280.729 108.101 280.729 130.396V137.505H230.82ZM129.206 108.369C134.975 108.369 137.383 111.22 137.383 115.857V170.354H157.049V115.736C157.049 104.676 151.174 92.477 133.887 92.477L93.2625 92.4527V170.345H112.929V108.369H129.206Z" fill="#0071C5"/>
</g>
<defs>
<clipPath id="clip0_151_597">
<rect width="384" height="254" fill="white" transform="translate(0 0.5)"/>
</clipPath>
</defs>
</svg>
