<svg width="20" height="21" viewBox="0 0 20 21" fill="none" xmlns="http://www.w3.org/2000/svg">
<g clip-path="url(#clip0_173_1154)">
<path d="M20 10.5C20 4.97656 15.5234 0.5 10 0.5C4.47656 0.5 0 4.97656 0 10.5C0 15.1875 3.23047 19.125 7.58594 20.207V13.5547H5.52344V10.5H7.58594V9.18359C7.58594 5.78125 9.125 4.20312 12.4688 4.20312C13.1016 4.20312 14.1953 4.32812 14.6445 4.45312V7.21875C14.4102 7.19531 14 7.17969 13.4883 7.17969C11.8477 7.17969 11.2148 7.80078 11.2148 9.41406V10.5H14.4805L13.918 13.5547H11.2109V20.4258C16.1641 19.8281 20 15.6133 20 10.5Z" fill="black"/>
</g>
<defs>
<clipPath id="clip0_173_1154">
<rect width="20" height="20" fill="white" transform="translate(0 0.5)"/>
</clipPath>
</defs>
</svg>
