<svg width="20" height="21" viewBox="0 0 20 21" fill="none" xmlns="http://www.w3.org/2000/svg">
<path d="M10 7.5875C8.3875 7.5875 7.0875 8.9 7.0875 10.5C7.0875 12.1 8.4 13.4125 10 13.4125C11.6 13.4125 12.9125 12.1 12.9125 10.5C12.9125 8.9 11.6 7.5875 10 7.5875ZM18.75 10.5C18.75 9.2875 18.75 8.1 18.6875 6.8875C18.625 5.4875 18.3 4.2375 17.275 3.225C16.25 2.2 15.0125 1.875 13.6125 1.8125C12.4 1.75 11.2125 1.75 10 1.75C8.7875 1.75 7.6 1.75 6.3875 1.8125C4.9875 1.875 3.7375 2.2 2.725 3.225C1.7 4.25 1.375 5.4875 1.3125 6.8875C1.25 8.1 1.25 9.2875 1.25 10.5C1.25 11.7125 1.25 12.9 1.3125 14.1125C1.375 15.5125 1.7 16.7625 2.725 17.775C3.75 18.8 4.9875 19.125 6.3875 19.1875C7.6 19.25 8.7875 19.25 10 19.25C11.2125 19.25 12.4 19.25 13.6125 19.1875C15.0125 19.125 16.2625 18.8 17.275 17.775C18.3 16.75 18.625 15.5125 18.6875 14.1125C18.7625 12.9125 18.75 11.7125 18.75 10.5ZM10 14.9875C7.5125 14.9875 5.5125 12.9875 5.5125 10.5C5.5125 8.0125 7.5125 6.0125 10 6.0125C12.4875 6.0125 14.4875 8.0125 14.4875 10.5C14.4875 12.9875 12.4875 14.9875 10 14.9875ZM14.675 6.875C14.1 6.875 13.625 6.4125 13.625 5.825C13.625 5.2375 14.0875 4.775 14.675 4.775C15.2625 4.775 15.725 5.2375 15.725 5.825C15.7282 5.96192 15.7032 6.09803 15.6516 6.22489C15.6 6.35176 15.5228 6.46667 15.425 6.5625C15.3292 6.66034 15.2143 6.73746 15.0874 6.78906C14.9605 6.84067 14.8244 6.86566 14.6875 6.8625L14.675 6.875Z" fill="black"/>
</svg>
