<svg width="20" height="21" viewBox="0 0 20 21" fill="none" xmlns="http://www.w3.org/2000/svg">
<path d="M5 3.5C5 4.562 4.29 5.476 2.999 5.476C1.784 5.476 1 4.614 1 3.552C1 2.462 1.76 1.5 3 1.5C4.24 1.5 4.976 2.41 5 3.5ZM1 19.5V6.5H5V19.5H1ZM7 10.944C7 9.399 6.949 8.108 6.898 6.993H10.492L10.67 8.716H10.746C11.252 7.905 12.492 6.716 14.568 6.716C17.1 6.716 19 8.411 19 12.058V19.5H15V12.639C15 11.045 14.393 9.829 13 9.829C11.938 9.829 11.406 10.689 11.127 11.398C11.025 11.652 11 12.006 11 12.361V19.5H7V10.944Z" fill="black"/>
</svg>
