<svg width="20" height="21" viewBox="0 0 20 21" fill="none" xmlns="http://www.w3.org/2000/svg">
<path d="M15.8337 19.6666L14.667 18.5L15.9795 17.1666H12.5003V15.5H15.9795L14.6462 14.1666L15.8337 13L19.167 16.3333L15.8337 19.6666ZM3.33366 17.1666C2.87533 17.1666 2.4831 17.0036 2.15699 16.6775C1.83088 16.3514 1.66755 15.9589 1.66699 15.5V5.49998C1.66699 5.04165 1.83033 4.64942 2.15699 4.32331C2.48366 3.9972 2.87588 3.83387 3.33366 3.83331H16.667C17.1253 3.83331 17.5178 3.99665 17.8445 4.32331C18.1712 4.64998 18.3342 5.0422 18.3337 5.49998V12C17.9587 11.7778 17.5595 11.6111 17.1362 11.5C16.7128 11.3889 16.2787 11.3333 15.8337 11.3333C14.4448 11.3333 13.2642 11.8194 12.292 12.7916C11.3198 13.7639 10.8337 14.9444 10.8337 16.3333V17.1666H3.33366ZM10.0003 11.3333L16.667 7.16665V5.49998L10.0003 9.66665L3.33366 5.49998V7.16665L10.0003 11.3333Z" fill="black"/>
</svg>
