<svg width="20" height="21" viewBox="0 0 20 21" fill="none" xmlns="http://www.w3.org/2000/svg">
<path d="M14.0167 17.8067L3.12755 3.80667C3.07016 3.73276 3.03465 3.64423 3.02508 3.55114C3.01551 3.45806 3.03225 3.36415 3.07341 3.28011C3.11456 3.19607 3.17847 3.12526 3.25787 3.07575C3.33727 3.02623 3.42897 2.99998 3.52255 3H5.58922C5.6653 3.00011 5.74035 3.01759 5.80865 3.05109C5.87696 3.08459 5.93672 3.13324 5.98338 3.19333L16.8725 17.1933C16.9299 17.2672 16.9654 17.3558 16.975 17.4489C16.9846 17.5419 16.9678 17.6358 16.9267 17.7199C16.8855 17.8039 16.8216 17.8747 16.7422 17.9243C16.6628 17.9738 16.5711 18 16.4775 18H14.4109C14.3348 17.9999 14.2598 17.9824 14.1914 17.9489C14.1231 17.9154 14.0634 17.8668 14.0167 17.8067Z" stroke="black" stroke-width="1.25"/>
<path d="M16.6663 3L3.33301 18" stroke="black" stroke-width="1.25" stroke-linecap="round"/>
</svg>
